<mxfile host="app.diagrams.net" agent="Mozilla/5.0 (Windows NT 10.0; Win64; x64) AppleWebKit/537.36 (KHTML, like Gecko) Chrome/129.0.0.0 Safari/537.36" version="24.7.17">
  <diagram id="2RAkf9iS2bYrb-5zrusB" name="Page-1">
    <mxGraphModel dx="1960" dy="868" grid="1" gridSize="10" guides="1" tooltips="1" connect="1" arrows="1" fold="1" page="1" pageScale="1" pageWidth="850" pageHeight="1100" math="0" shadow="0">
      <root>
        <mxCell id="0" />
        <mxCell id="1" parent="0" />
        <mxCell id="EpLoNu7SxfJ4iQwhgqlz-1" value="&lt;h1&gt;Assurance Case&lt;/h1&gt;&lt;p&gt;This is an example diagram that will provide quick access to all elements necessary to create an assurance case.&lt;/p&gt;" style="text;html=1;strokeColor=none;fillColor=none;spacing=5;spacingTop=-20;whiteSpace=wrap;overflow=hidden;rounded=0;" parent="1" vertex="1">
          <mxGeometry x="1290" y="10" width="190" height="150" as="geometry" />
        </mxCell>
        <mxCell id="EpLoNu7SxfJ4iQwhgqlz-4" style="edgeStyle=orthogonalEdgeStyle;rounded=0;orthogonalLoop=1;jettySize=auto;html=1;exitX=1;exitY=0.5;exitDx=0;exitDy=0;entryX=0;entryY=0.5;entryDx=0;entryDy=0;endArrow=block;endFill=1;" parent="1" source="EpLoNu7SxfJ4iQwhgqlz-2" target="EpLoNu7SxfJ4iQwhgqlz-3" edge="1">
          <mxGeometry relative="1" as="geometry" />
        </mxCell>
        <mxCell id="EpLoNu7SxfJ4iQwhgqlz-6" value="" style="edgeStyle=orthogonalEdgeStyle;rounded=0;orthogonalLoop=1;jettySize=auto;html=1;endArrow=block;endFill=1;curved=1;" parent="1" source="EpLoNu7SxfJ4iQwhgqlz-2" target="EpLoNu7SxfJ4iQwhgqlz-5" edge="1">
          <mxGeometry relative="1" as="geometry" />
        </mxCell>
        <mxCell id="iLJ3KfVniBHEaj_rWOB3-5" style="edgeStyle=orthogonalEdgeStyle;rounded=0;orthogonalLoop=1;jettySize=auto;html=1;curved=1;exitX=0.5;exitY=1;exitDx=0;exitDy=0;" edge="1" parent="1" source="EpLoNu7SxfJ4iQwhgqlz-2" target="iLJ3KfVniBHEaj_rWOB3-1">
          <mxGeometry relative="1" as="geometry">
            <mxPoint x="430" y="90" as="sourcePoint" />
          </mxGeometry>
        </mxCell>
        <mxCell id="EpLoNu7SxfJ4iQwhgqlz-2" value="&lt;b&gt;Top-Claim C1:&lt;br&gt;&lt;/b&gt;Suricata detects unauthorized network traffic." style="rounded=0;whiteSpace=wrap;html=1;" parent="1" vertex="1">
          <mxGeometry x="580" y="10" width="125" height="60" as="geometry" />
        </mxCell>
        <mxCell id="EpLoNu7SxfJ4iQwhgqlz-3" value="&lt;b&gt;Context: CT1&lt;/b&gt;&lt;br&gt;Suricata is an open-source Intrusion Detection and Prevention software." style="rounded=1;whiteSpace=wrap;html=1;arcSize=30;" parent="1" vertex="1">
          <mxGeometry x="840" y="10" width="165" height="60" as="geometry" />
        </mxCell>
        <mxCell id="EpLoNu7SxfJ4iQwhgqlz-9" style="edgeStyle=orthogonalEdgeStyle;curved=1;rounded=0;orthogonalLoop=1;jettySize=auto;html=1;endArrow=block;endFill=1;" parent="1" source="EpLoNu7SxfJ4iQwhgqlz-5" target="EpLoNu7SxfJ4iQwhgqlz-8" edge="1">
          <mxGeometry relative="1" as="geometry" />
        </mxCell>
        <mxCell id="EpLoNu7SxfJ4iQwhgqlz-5" value="&lt;b&gt;Rebuttal R1&lt;/b&gt;: Unless Suricata is not installed" style="shape=note;whiteSpace=wrap;html=1;backgroundOutline=1;darkOpacity=0.05;size=17;fillColor=#FFF2CC;" parent="1" vertex="1">
          <mxGeometry x="167.5" y="150" width="140" height="60" as="geometry" />
        </mxCell>
        <mxCell id="EpLoNu7SxfJ4iQwhgqlz-12" style="edgeStyle=orthogonalEdgeStyle;curved=1;rounded=0;orthogonalLoop=1;jettySize=auto;html=1;exitX=0.5;exitY=1;exitDx=0;exitDy=0;entryX=0.5;entryY=0;entryDx=0;entryDy=0;entryPerimeter=0;endArrow=block;endFill=1;" parent="1" source="EpLoNu7SxfJ4iQwhgqlz-8" target="EpLoNu7SxfJ4iQwhgqlz-10" edge="1">
          <mxGeometry relative="1" as="geometry" />
        </mxCell>
        <mxCell id="EpLoNu7SxfJ4iQwhgqlz-8" value="&lt;b&gt;Sub-Claim C1:&lt;br&gt;&lt;/b&gt;Suricata is installed" style="rounded=0;whiteSpace=wrap;html=1;" parent="1" vertex="1">
          <mxGeometry x="170" y="250" width="135" height="60" as="geometry" />
        </mxCell>
        <mxCell id="EpLoNu7SxfJ4iQwhgqlz-16" style="edgeStyle=orthogonalEdgeStyle;curved=1;rounded=0;orthogonalLoop=1;jettySize=auto;html=1;exitX=0.5;exitY=1;exitDx=0;exitDy=0;exitPerimeter=0;entryX=0.5;entryY=0;entryDx=0;entryDy=0;endArrow=block;endFill=1;" parent="1" source="EpLoNu7SxfJ4iQwhgqlz-10" target="EpLoNu7SxfJ4iQwhgqlz-14" edge="1">
          <mxGeometry relative="1" as="geometry" />
        </mxCell>
        <mxCell id="EpLoNu7SxfJ4iQwhgqlz-10" value="&lt;b&gt;Rebuttal R4&lt;/b&gt;: Unless Suricata is not enabled" style="shape=note;whiteSpace=wrap;html=1;backgroundOutline=1;darkOpacity=0.05;size=17;fillColor=#FFF2CC;" parent="1" vertex="1">
          <mxGeometry x="167.5" y="370" width="140" height="60" as="geometry" />
        </mxCell>
        <mxCell id="EpLoNu7SxfJ4iQwhgqlz-20" style="edgeStyle=orthogonalEdgeStyle;curved=1;rounded=0;orthogonalLoop=1;jettySize=auto;html=1;exitX=0.5;exitY=1;exitDx=0;exitDy=0;entryX=0.5;entryY=0;entryDx=0;entryDy=0;endArrow=block;endFill=1;" parent="1" source="EpLoNu7SxfJ4iQwhgqlz-14" target="EpLoNu7SxfJ4iQwhgqlz-18" edge="1">
          <mxGeometry relative="1" as="geometry" />
        </mxCell>
        <mxCell id="EpLoNu7SxfJ4iQwhgqlz-21" style="rounded=0;orthogonalLoop=1;jettySize=auto;html=1;entryX=0.5;entryY=0;entryDx=0;entryDy=0;endArrow=block;endFill=1;exitX=0.5;exitY=1;exitDx=0;exitDy=0;" parent="1" source="iLJ3KfVniBHEaj_rWOB3-24" target="EpLoNu7SxfJ4iQwhgqlz-19" edge="1">
          <mxGeometry relative="1" as="geometry" />
        </mxCell>
        <mxCell id="EpLoNu7SxfJ4iQwhgqlz-14" value="&lt;b&gt;Sub-Claim C4:&lt;br&gt;&lt;/b&gt;Suricata is enabled" style="rounded=0;whiteSpace=wrap;html=1;" parent="1" vertex="1">
          <mxGeometry x="167.5" y="490" width="140" height="60" as="geometry" />
        </mxCell>
        <mxCell id="EpLoNu7SxfJ4iQwhgqlz-23" style="edgeStyle=orthogonalEdgeStyle;curved=1;rounded=0;orthogonalLoop=1;jettySize=auto;html=1;entryX=0.5;entryY=0;entryDx=0;entryDy=0;endArrow=block;endFill=1;" parent="1" source="EpLoNu7SxfJ4iQwhgqlz-18" target="EpLoNu7SxfJ4iQwhgqlz-22" edge="1">
          <mxGeometry relative="1" as="geometry" />
        </mxCell>
        <mxCell id="EpLoNu7SxfJ4iQwhgqlz-18" value="&lt;b&gt;Evidence E1&lt;/b&gt;:&lt;br&gt;Suricata logs" style="ellipse;whiteSpace=wrap;html=1;aspect=fixed;fillColor=#ffffff;rounded=0;" parent="1" vertex="1">
          <mxGeometry x="187.5" y="580" width="100" height="100" as="geometry" />
        </mxCell>
        <mxCell id="EpLoNu7SxfJ4iQwhgqlz-25" style="edgeStyle=orthogonalEdgeStyle;curved=1;rounded=0;orthogonalLoop=1;jettySize=auto;html=1;entryX=0.5;entryY=0;entryDx=0;entryDy=0;endArrow=block;endFill=1;" parent="1" source="EpLoNu7SxfJ4iQwhgqlz-19" target="EpLoNu7SxfJ4iQwhgqlz-24" edge="1">
          <mxGeometry relative="1" as="geometry" />
        </mxCell>
        <mxCell id="EpLoNu7SxfJ4iQwhgqlz-19" value="&lt;b&gt;Evidence E2:&lt;/b&gt;&lt;br&gt;Suricata-initiated alerts" style="ellipse;whiteSpace=wrap;html=1;aspect=fixed;fillColor=#ffffff;rounded=0;" parent="1" vertex="1">
          <mxGeometry x="430" y="580" width="100" height="100" as="geometry" />
        </mxCell>
        <mxCell id="EpLoNu7SxfJ4iQwhgqlz-22" value="" style="ellipse;whiteSpace=wrap;html=1;aspect=fixed;fillColor=#CCCCCC;" parent="1" vertex="1">
          <mxGeometry x="222.5" y="720" width="30" height="30" as="geometry" />
        </mxCell>
        <mxCell id="EpLoNu7SxfJ4iQwhgqlz-24" value="" style="ellipse;whiteSpace=wrap;html=1;aspect=fixed;fillColor=#CCCCCC;" parent="1" vertex="1">
          <mxGeometry x="465" y="720" width="30" height="30" as="geometry" />
        </mxCell>
        <mxCell id="iLJ3KfVniBHEaj_rWOB3-1" value="&lt;b&gt;Rebuttal R2:&lt;/b&gt; Unless detection rules are not implemented" style="shape=note;whiteSpace=wrap;html=1;backgroundOutline=1;darkOpacity=0.05;size=17;fillColor=#FFF2CC;" vertex="1" parent="1">
          <mxGeometry x="572.5" y="130" width="140" height="60" as="geometry" />
        </mxCell>
        <mxCell id="iLJ3KfVniBHEaj_rWOB3-6" value="&lt;b&gt;Sub-Claim C2:&lt;br&gt;&lt;/b&gt;Detection rules are implemented" style="rounded=0;whiteSpace=wrap;html=1;" vertex="1" parent="1">
          <mxGeometry x="575" y="250" width="135" height="60" as="geometry" />
        </mxCell>
        <mxCell id="iLJ3KfVniBHEaj_rWOB3-8" style="edgeStyle=orthogonalEdgeStyle;curved=1;rounded=0;orthogonalLoop=1;jettySize=auto;html=1;entryX=0.5;entryY=0;entryDx=0;entryDy=0;endArrow=block;endFill=1;" edge="1" parent="1" source="iLJ3KfVniBHEaj_rWOB3-1" target="iLJ3KfVniBHEaj_rWOB3-6">
          <mxGeometry relative="1" as="geometry">
            <mxPoint x="486.47" y="205" as="sourcePoint" />
            <mxPoint x="532.97" y="245" as="targetPoint" />
          </mxGeometry>
        </mxCell>
        <mxCell id="iLJ3KfVniBHEaj_rWOB3-26" style="edgeStyle=orthogonalEdgeStyle;rounded=0;orthogonalLoop=1;jettySize=auto;html=1;exitX=0.5;exitY=1;exitDx=0;exitDy=0;exitPerimeter=0;entryX=0.5;entryY=0;entryDx=0;entryDy=0;" edge="1" parent="1" source="iLJ3KfVniBHEaj_rWOB3-10" target="iLJ3KfVniBHEaj_rWOB3-24">
          <mxGeometry relative="1" as="geometry" />
        </mxCell>
        <mxCell id="iLJ3KfVniBHEaj_rWOB3-10" value="&lt;b&gt;Rebuttal R5:&lt;/b&gt; Unless rule alerting is not enabled" style="shape=note;whiteSpace=wrap;html=1;backgroundOutline=1;darkOpacity=0.05;size=17;fillColor=#FFF2CC;" vertex="1" parent="1">
          <mxGeometry x="410" y="370" width="140" height="60" as="geometry" />
        </mxCell>
        <mxCell id="iLJ3KfVniBHEaj_rWOB3-11" style="edgeStyle=orthogonalEdgeStyle;rounded=0;orthogonalLoop=1;jettySize=auto;html=1;exitX=0.25;exitY=1;exitDx=0;exitDy=0;entryX=0.5;entryY=0;entryDx=0;entryDy=0;entryPerimeter=0;curved=1;" edge="1" parent="1" source="iLJ3KfVniBHEaj_rWOB3-6" target="iLJ3KfVniBHEaj_rWOB3-10">
          <mxGeometry relative="1" as="geometry" />
        </mxCell>
        <mxCell id="iLJ3KfVniBHEaj_rWOB3-31" style="edgeStyle=orthogonalEdgeStyle;rounded=0;orthogonalLoop=1;jettySize=auto;html=1;exitX=0.5;exitY=1;exitDx=0;exitDy=0;exitPerimeter=0;entryX=0.5;entryY=0;entryDx=0;entryDy=0;" edge="1" parent="1" source="iLJ3KfVniBHEaj_rWOB3-13" target="iLJ3KfVniBHEaj_rWOB3-20">
          <mxGeometry relative="1" as="geometry" />
        </mxCell>
        <mxCell id="iLJ3KfVniBHEaj_rWOB3-13" value="&lt;b&gt;Rebuttal R3:&lt;/b&gt; Unless there is no network traffic to detect" style="shape=note;whiteSpace=wrap;html=1;backgroundOutline=1;darkOpacity=0.05;size=17;fillColor=#FFF2CC;" vertex="1" parent="1">
          <mxGeometry x="940" y="145" width="160" height="70" as="geometry" />
        </mxCell>
        <mxCell id="iLJ3KfVniBHEaj_rWOB3-44" style="edgeStyle=orthogonalEdgeStyle;rounded=0;orthogonalLoop=1;jettySize=auto;html=1;exitX=0.5;exitY=1;exitDx=0;exitDy=0;exitPerimeter=0;curved=1;" edge="1" parent="1" source="iLJ3KfVniBHEaj_rWOB3-14" target="iLJ3KfVniBHEaj_rWOB3-43">
          <mxGeometry relative="1" as="geometry" />
        </mxCell>
        <mxCell id="iLJ3KfVniBHEaj_rWOB3-14" value="&lt;b&gt;Rebuttal R6: &lt;/b&gt;Unless unauthorized traffic does not match rule parameters" style="shape=note;whiteSpace=wrap;html=1;backgroundOutline=1;darkOpacity=0.05;size=17;fillColor=#FFF2CC;" vertex="1" parent="1">
          <mxGeometry x="605" y="370" width="140" height="60" as="geometry" />
        </mxCell>
        <mxCell id="iLJ3KfVniBHEaj_rWOB3-15" style="edgeStyle=orthogonalEdgeStyle;rounded=0;orthogonalLoop=1;jettySize=auto;html=1;exitX=0.5;exitY=1;exitDx=0;exitDy=0;entryX=0;entryY=0;entryDx=61.5;entryDy=0;entryPerimeter=0;curved=1;" edge="1" parent="1" source="iLJ3KfVniBHEaj_rWOB3-6" target="iLJ3KfVniBHEaj_rWOB3-14">
          <mxGeometry relative="1" as="geometry" />
        </mxCell>
        <mxCell id="iLJ3KfVniBHEaj_rWOB3-42" style="edgeStyle=orthogonalEdgeStyle;rounded=0;orthogonalLoop=1;jettySize=auto;html=1;exitX=0.5;exitY=1;exitDx=0;exitDy=0;entryX=0.5;entryY=0;entryDx=0;entryDy=0;" edge="1" parent="1" source="iLJ3KfVniBHEaj_rWOB3-20" target="iLJ3KfVniBHEaj_rWOB3-39">
          <mxGeometry relative="1" as="geometry" />
        </mxCell>
        <mxCell id="iLJ3KfVniBHEaj_rWOB3-20" value="&lt;b&gt;Sub-Claim C3:&lt;br&gt;&lt;/b&gt;Suricata is configured on a production network" style="rounded=0;whiteSpace=wrap;html=1;" vertex="1" parent="1">
          <mxGeometry x="952.5" y="255" width="135" height="60" as="geometry" />
        </mxCell>
        <mxCell id="iLJ3KfVniBHEaj_rWOB3-24" value="&lt;b&gt;Sub-Claim C5:&lt;br&gt;&lt;/b&gt;Rules are enabled" style="rounded=0;whiteSpace=wrap;html=1;" vertex="1" parent="1">
          <mxGeometry x="410" y="490" width="140" height="60" as="geometry" />
        </mxCell>
        <mxCell id="iLJ3KfVniBHEaj_rWOB3-30" style="edgeStyle=orthogonalEdgeStyle;rounded=0;orthogonalLoop=1;jettySize=auto;html=1;exitX=0.75;exitY=1;exitDx=0;exitDy=0;entryX=0.5;entryY=0;entryDx=0;entryDy=0;entryPerimeter=0;curved=1;" edge="1" parent="1" source="EpLoNu7SxfJ4iQwhgqlz-2" target="iLJ3KfVniBHEaj_rWOB3-13">
          <mxGeometry relative="1" as="geometry" />
        </mxCell>
        <mxCell id="iLJ3KfVniBHEaj_rWOB3-38" style="edgeStyle=orthogonalEdgeStyle;curved=1;rounded=0;orthogonalLoop=1;jettySize=auto;html=1;entryX=0.5;entryY=0;entryDx=0;entryDy=0;endArrow=block;endFill=1;" edge="1" parent="1" source="iLJ3KfVniBHEaj_rWOB3-39" target="iLJ3KfVniBHEaj_rWOB3-40">
          <mxGeometry relative="1" as="geometry" />
        </mxCell>
        <mxCell id="iLJ3KfVniBHEaj_rWOB3-39" value="&lt;b&gt;Evidence E4:&lt;/b&gt;&lt;br&gt;Network logs" style="ellipse;whiteSpace=wrap;html=1;aspect=fixed;fillColor=#ffffff;rounded=0;" vertex="1" parent="1">
          <mxGeometry x="970" y="350" width="100" height="100" as="geometry" />
        </mxCell>
        <mxCell id="iLJ3KfVniBHEaj_rWOB3-40" value="" style="ellipse;whiteSpace=wrap;html=1;aspect=fixed;fillColor=#CCCCCC;" vertex="1" parent="1">
          <mxGeometry x="1005" y="490" width="30" height="30" as="geometry" />
        </mxCell>
        <mxCell id="iLJ3KfVniBHEaj_rWOB3-47" style="edgeStyle=orthogonalEdgeStyle;rounded=0;orthogonalLoop=1;jettySize=auto;html=1;exitX=0.5;exitY=1;exitDx=0;exitDy=0;entryX=0.5;entryY=0;entryDx=0;entryDy=0;" edge="1" parent="1" source="iLJ3KfVniBHEaj_rWOB3-43" target="iLJ3KfVniBHEaj_rWOB3-46">
          <mxGeometry relative="1" as="geometry" />
        </mxCell>
        <mxCell id="iLJ3KfVniBHEaj_rWOB3-43" value="&lt;b&gt;Sub-Claim C6:&lt;br&gt;&lt;/b&gt;Rule parameters are updated" style="rounded=0;whiteSpace=wrap;html=1;" vertex="1" parent="1">
          <mxGeometry x="690" y="490" width="140" height="60" as="geometry" />
        </mxCell>
        <mxCell id="iLJ3KfVniBHEaj_rWOB3-49" style="edgeStyle=orthogonalEdgeStyle;rounded=0;orthogonalLoop=1;jettySize=auto;html=1;exitX=0.5;exitY=1;exitDx=0;exitDy=0;entryX=0.5;entryY=0;entryDx=0;entryDy=0;" edge="1" parent="1" source="iLJ3KfVniBHEaj_rWOB3-46" target="iLJ3KfVniBHEaj_rWOB3-48">
          <mxGeometry relative="1" as="geometry" />
        </mxCell>
        <mxCell id="iLJ3KfVniBHEaj_rWOB3-46" value="&lt;b&gt;Evidence E3:&lt;/b&gt;&lt;br&gt;Network traffic logs" style="ellipse;whiteSpace=wrap;html=1;aspect=fixed;fillColor=#ffffff;rounded=0;" vertex="1" parent="1">
          <mxGeometry x="710" y="580" width="100" height="100" as="geometry" />
        </mxCell>
        <mxCell id="iLJ3KfVniBHEaj_rWOB3-48" value="" style="ellipse;whiteSpace=wrap;html=1;aspect=fixed;fillColor=#CCCCCC;" vertex="1" parent="1">
          <mxGeometry x="745" y="720" width="30" height="30" as="geometry" />
        </mxCell>
        <mxCell id="iLJ3KfVniBHEaj_rWOB3-54" style="edgeStyle=orthogonalEdgeStyle;rounded=0;orthogonalLoop=1;jettySize=auto;html=1;exitX=0.5;exitY=1;exitDx=0;exitDy=0;exitPerimeter=0;entryX=0.5;entryY=0;entryDx=0;entryDy=0;curved=1;" edge="1" parent="1" source="iLJ3KfVniBHEaj_rWOB3-50" target="iLJ3KfVniBHEaj_rWOB3-43">
          <mxGeometry relative="1" as="geometry" />
        </mxCell>
        <mxCell id="iLJ3KfVniBHEaj_rWOB3-50" value="&lt;b&gt;Rebuttal R7: &lt;/b&gt;Unless unauthorized traffic is disguised as normal traffic" style="shape=note;whiteSpace=wrap;html=1;backgroundOutline=1;darkOpacity=0.05;size=17;fillColor=#FFF2CC;" vertex="1" parent="1">
          <mxGeometry x="780" y="370" width="140" height="60" as="geometry" />
        </mxCell>
        <mxCell id="iLJ3KfVniBHEaj_rWOB3-51" style="edgeStyle=orthogonalEdgeStyle;rounded=0;orthogonalLoop=1;jettySize=auto;html=1;exitX=0.75;exitY=1;exitDx=0;exitDy=0;entryX=0;entryY=0;entryDx=61.5;entryDy=0;entryPerimeter=0;curved=1;" edge="1" parent="1" source="iLJ3KfVniBHEaj_rWOB3-6" target="iLJ3KfVniBHEaj_rWOB3-50">
          <mxGeometry relative="1" as="geometry" />
        </mxCell>
      </root>
    </mxGraphModel>
  </diagram>
</mxfile>
